<?xml version="1.0" standalone="no"?>
<!DOCTYPE svg PUBLIC "-//W3C//DTD SVG 20010904//EN"
 "http://www.w3.org/TR/2001/REC-SVG-20010904/DTD/svg10.dtd">
<svg version="1.0" xmlns="http://www.w3.org/2000/svg"
 width="512.000000pt" height="512.000000pt" viewBox="0 0 512.000000 512.000000"
 preserveAspectRatio="xMidYMid meet">
<metadata>
Created by potrace 1.14, written by Peter Selinger 2001-2017
</metadata>
<g transform="translate(0.000000,512.000000) scale(0.100000,-0.100000)"
fill="#000000" stroke="none">
<path d="M4109 4765 c-90 -18 -208 -68 -295 -127 -243 -162 -320 -439 -191
-682 63 -120 202 -231 336 -270 69 -20 227 -21 301 -1 176 47 311 171 371 341
29 82 36 236 15 332 -16 75 -75 210 -128 295 -67 106 -224 149 -409 112z m275
-191 c69 -24 136 -90 136 -135 0 -19 12 -59 26 -88 14 -30 28 -74 31 -97 17
-129 -132 -304 -312 -362 -140 -47 -273 -36 -399 31 -112 59 -226 196 -226
271 0 90 136 238 292 317 145 73 342 100 452 63z"/>
<path d="M1795 4713 c-9 -23 -24 -639 -25 -1010 l0 -282 -42 -5 c-24 -3 -281
-12 -573 -21 -291 -8 -572 -18 -623 -21 -87 -6 -92 -7 -98 -31 -7 -27 0 -101
11 -111 4 -4 301 -7 661 -7 l654 1 0 -622 c0 -342 2 -629 5 -636 5 -12 -75
-16 -517 -27 -288 -7 -546 -16 -573 -22 -28 -5 -65 -18 -83 -29 -32 -20 -33
-22 -30 -78 l3 -57 40 1 c22 1 292 5 601 9 l561 6 7 -208 c18 -547 51 -1062
71 -1111 19 -45 51 -44 71 3 13 32 13 59 0 238 -19 243 -33 497 -41 707 -3 85
-8 204 -11 264 l-6 109 698 -6 c383 -4 700 -9 703 -13 3 -3 7 -291 9 -640 4
-582 6 -637 22 -656 21 -27 46 -19 61 19 13 33 15 789 4 1091 l-8 192 294 0
c489 0 1116 30 1132 54 9 12 5 161 -4 170 -3 4 -57 2 -120 -3 -211 -18 -562
-31 -934 -33 l-370 -3 -7 170 c-4 94 -8 393 -10 665 l-3 495 715 0 715 0 3 75
c5 127 85 114 -727 114 l-701 1 0 270 c0 149 -5 353 -11 455 -8 139 -8 224 1
341 9 118 10 161 1 177 -16 31 -28 27 -40 -10 -31 -98 -36 -177 -33 -603 2
-236 0 -476 -3 -531 l-7 -102 -236 -6 c-131 -4 -433 -14 -672 -22 -239 -7
-445 -14 -457 -14 l-23 0 -1 628 c-1 345 -4 638 -8 652 -8 30 -36 38 -46 13z
m1448 -2105 c3 -365 5 -663 4 -663 -1 0 -313 1 -693 3 l-691 4 -6 111 c-6 104
-10 1165 -4 1168 6 4 1071 36 1218 38 l166 1 6 -662z"/>
<path d="M2834 3057 c-89 -67 -216 -167 -283 -222 -67 -55 -127 -102 -133
-104 -6 -2 -53 40 -104 93 -93 95 -171 201 -208 284 -21 45 -39 53 -56 23 -19
-36 -10 -87 30 -169 46 -96 101 -180 176 -268 l54 -63 -86 -88 c-84 -85 -199
-225 -223 -270 -16 -31 -14 -85 4 -110 15 -21 19 -18 199 161 101 101 192 187
204 190 16 6 37 -7 94 -55 139 -117 519 -371 576 -386 34 -8 46 10 50 80 5 82
-8 98 -159 187 -112 66 -354 225 -408 268 l-23 19 138 104 c77 58 187 140 247
183 59 43 112 86 117 96 13 25 13 126 0 151 -6 10 -18 19 -28 19 -9 0 -90 -55
-178 -123z"/>
<path d="M2060 4684 c-18 -46 -11 -80 29 -142 43 -65 160 -186 278 -285 l72
-61 -177 -185 c-224 -235 -232 -244 -232 -286 0 -46 16 -85 35 -85 8 0 119
101 246 225 127 124 234 225 239 225 5 0 64 -60 132 -132 209 -225 326 -340
340 -336 22 8 38 50 38 106 l0 53 -200 206 c-167 173 -197 209 -187 221 16 21
209 187 280 242 37 29 61 57 68 78 14 42 4 114 -20 143 l-17 21 -60 -47 c-84
-69 -195 -167 -294 -262 l-85 -81 -145 116 c-80 63 -183 155 -230 204 -47 48
-89 88 -93 88 -4 0 -12 -12 -17 -26z"/>
<path d="M1061 4674 c-107 -29 -209 -92 -306 -189 -132 -132 -185 -252 -185
-420 0 -96 16 -162 60 -244 140 -262 535 -306 742 -82 126 135 204 387 178
570 -7 51 -25 102 -60 175 -55 116 -100 164 -178 190 -57 20 -178 20 -251 0z
m267 -174 l42 -19 0 -56 c0 -41 5 -59 19 -72 10 -10 32 -31 50 -46 26 -24 31
-36 31 -73 0 -93 -74 -257 -150 -333 -182 -182 -519 -148 -641 63 -40 70 -39
132 1 212 70 141 251 285 413 329 77 21 183 19 235 -5z"/>
<path d="M1394 3022 c-78 -65 -183 -155 -234 -201 l-91 -82 -71 63 c-39 34
-123 118 -187 185 -63 68 -121 123 -128 123 -17 0 -34 -69 -25 -102 11 -43 88
-142 197 -255 l101 -104 -82 -71 c-142 -122 -228 -247 -240 -353 -5 -41 -2
-55 13 -74 24 -30 35 -24 64 35 31 64 121 158 255 265 l114 91 71 -58 c39 -32
128 -108 198 -169 71 -61 145 -124 165 -140 l37 -28 22 22 c28 27 31 114 6
152 -9 13 -93 84 -187 158 -94 73 -176 139 -182 146 -14 17 1 31 212 197 159
125 178 147 178 209 0 43 -30 109 -49 109 -9 -1 -80 -54 -157 -118z"/>
<path d="M3884 3106 c-164 -51 -324 -201 -404 -380 -42 -92 -53 -160 -48 -279
4 -94 8 -113 37 -171 53 -109 155 -181 296 -211 163 -34 304 -2 441 101 222
167 288 491 154 754 -30 59 -143 170 -173 170 -12 0 -40 7 -62 15 -49 17 -186
18 -241 1z m231 -166 c48 -12 170 -133 205 -203 34 -69 37 -103 13 -173 -71
-211 -312 -360 -527 -325 -183 30 -317 145 -302 260 18 137 176 332 327 405
108 51 187 62 284 36z"/>
<path d="M4388 1613 c-52 -44 -124 -120 -222 -233 -22 -25 -61 -69 -87 -97
l-47 -53 -139 109 c-76 60 -175 143 -220 185 -44 42 -86 76 -91 76 -20 0 -31
-65 -20 -115 15 -72 91 -155 303 -331 l49 -42 -92 -97 c-181 -191 -278 -378
-243 -467 19 -50 47 -36 85 41 19 38 62 102 95 144 66 81 266 277 284 277 12
0 138 -126 272 -274 93 -103 194 -186 226 -186 28 0 49 39 49 92 0 65 -13 88
-72 128 -28 19 -122 109 -208 200 l-158 164 92 105 c50 57 126 133 168 169 43
36 81 74 84 86 10 30 7 107 -5 139 -15 39 -39 34 -103 -20z"/>
<path d="M1525 1593 c-84 -69 -182 -168 -272 -274 l-66 -79 -46 39 c-67 56
-231 208 -267 247 -36 39 -49 42 -64 15 -33 -63 -2 -119 153 -278 87 -89 126
-136 121 -145 -22 -36 -171 -205 -260 -293 -114 -112 -124 -128 -124 -182 0
-69 36 -81 103 -34 75 52 165 141 287 282 l120 139 100 -92 c55 -51 134 -132
177 -181 56 -64 82 -87 97 -85 30 4 47 46 43 100 -5 63 -56 128 -201 260 -61
55 -112 104 -114 109 -5 12 152 172 246 251 l82 69 0 67 c0 65 -14 112 -35
119 -6 2 -42 -23 -80 -54z"/>
<path d="M2531 1609 c-178 -46 -322 -152 -388 -285 -31 -64 -37 -88 -41 -158
-5 -102 10 -177 53 -264 68 -136 187 -236 319 -268 228 -57 501 134 572 400
32 119 9 310 -46 391 -12 17 -28 46 -36 65 -23 53 -72 98 -131 120 -71 26
-200 26 -302 -1z m295 -169 c27 -9 32 -17 37 -52 4 -28 16 -52 40 -77 54 -57
67 -82 67 -129 0 -105 -116 -254 -248 -320 -64 -31 -88 -38 -154 -41 -128 -5
-223 42 -313 156 -63 80 -81 132 -66 183 26 87 167 202 310 254 126 45 245 55
327 26z"/>
</g>
</svg>
